<svg width="44" height="44" viewBox="0 0 44 44" fill="none" xmlns="http://www.w3.org/2000/svg">
<rect x="0.5" y="0.5" width="43" height="43" rx="21.5" fill="white"/>
<rect x="0.5" y="0.5" width="43" height="43" rx="21.5" stroke="#E6E6E6"/>
<path d="M23.5 12C23.5 12.444 23.307 12.843 23 13.118V15H28C28.7956 15 29.5587 15.3161 30.1213 15.8787C30.6839 16.4413 31 17.2044 31 18V28C31 28.7957 30.6839 29.5587 30.1213 30.1213C29.5587 30.6839 28.7956 31 28 31H16C15.2044 31 14.4413 30.6839 13.8787 30.1213C13.3161 29.5587 13 28.7957 13 28V18C13 17.2044 13.3161 16.4413 13.8787 15.8787C14.4413 15.3161 15.2044 15 16 15H21V13.118C20.8135 12.9512 20.6717 12.7404 20.5875 12.5048C20.5033 12.2692 20.4794 12.0162 20.5179 11.769C20.5564 11.5218 20.6562 11.2881 20.8081 11.0893C20.96 10.8905 21.1592 10.7328 21.3876 10.6307C21.6161 10.5285 21.8664 10.4851 22.1159 10.5045C22.3653 10.5238 22.606 10.6052 22.8159 10.7413C23.0259 10.8774 23.1985 11.0639 23.3179 11.2837C23.4374 11.5036 23.5 11.7498 23.5 12ZM10 20H12V26H10V20ZM34 20H32V26H34V20ZM19 24.5C19.3978 24.5 19.7794 24.342 20.0607 24.0607C20.342 23.7794 20.5 23.3978 20.5 23C20.5 22.6022 20.342 22.2206 20.0607 21.9393C19.7794 21.658 19.3978 21.5 19 21.5C18.6022 21.5 18.2206 21.658 17.9393 21.9393C17.658 22.2206 17.5 22.6022 17.5 23C17.5 23.3978 17.658 23.7794 17.9393 24.0607C18.2206 24.342 18.6022 24.5 19 24.5ZM26.5 23C26.5 22.6022 26.342 22.2206 26.0607 21.9393C25.7794 21.658 25.3978 21.5 25 21.5C24.6022 21.5 24.2206 21.658 23.9393 21.9393C23.658 22.2206 23.5 22.6022 23.5 23C23.5 23.3978 23.658 23.7794 23.9393 24.0607C24.2206 24.342 24.6022 24.5 25 24.5C25.3978 24.5 25.7794 24.342 26.0607 24.0607C26.342 23.7794 26.5 23.3978 26.5 23Z" fill="#F54012"/>
</svg>
