<svg width="44" height="39" viewBox="0 0 44 39" fill="none" xmlns="http://www.w3.org/2000/svg">
<path d="M24.75 3.66669C24.75 4.48069 24.3962 5.21219 23.8333 5.71636V9.16669H33C34.4587 9.16669 35.8576 9.74615 36.8891 10.7776C37.9205 11.8091 38.5 13.208 38.5 14.6667V33C38.5 34.4587 37.9205 35.8577 36.8891 36.8891C35.8576 37.9206 34.4587 38.5 33 38.5H11C9.54131 38.5 8.14236 37.9206 7.11091 36.8891C6.07946 35.8577 5.5 34.4587 5.5 33V14.6667C5.5 13.208 6.07946 11.8091 7.11091 10.7776C8.14236 9.74615 9.54131 9.16669 11 9.16669H20.1667V5.71636C19.8248 5.41054 19.5648 5.02406 19.4104 4.59209C19.256 4.16013 19.2122 3.69641 19.2828 3.24316C19.3534 2.78991 19.5363 2.36153 19.8148 1.99703C20.0933 1.63253 20.4586 1.34349 20.8773 1.15622C21.2961 0.968952 21.755 0.889412 22.2124 0.924841C22.6697 0.960271 23.111 1.10954 23.4959 1.35907C23.8808 1.60859 24.1972 1.95044 24.4162 2.35349C24.6353 2.75653 24.75 3.20797 24.75 3.66669ZM0 18.3334H3.66667V29.3334H0V18.3334ZM44 18.3334H40.3333V29.3334H44V18.3334ZM16.5 26.5834C17.2293 26.5834 17.9288 26.2936 18.4445 25.7779C18.9603 25.2622 19.25 24.5627 19.25 23.8334C19.25 23.104 18.9603 22.4045 18.4445 21.8888C17.9288 21.3731 17.2293 21.0834 16.5 21.0834C15.7707 21.0834 15.0712 21.3731 14.5555 21.8888C14.0397 22.4045 13.75 23.104 13.75 23.8334C13.75 24.5627 14.0397 25.2622 14.5555 25.7779C15.0712 26.2936 15.7707 26.5834 16.5 26.5834ZM30.25 23.8334C30.25 23.104 29.9603 22.4045 29.4445 21.8888C28.9288 21.3731 28.2293 21.0834 27.5 21.0834C26.7707 21.0834 26.0712 21.3731 25.5555 21.8888C25.0397 22.4045 24.75 23.104 24.75 23.8334C24.75 24.5627 25.0397 25.2622 25.5555 25.7779C26.0712 26.2936 26.7707 26.5834 27.5 26.5834C28.2293 26.5834 28.9288 26.2936 29.4445 25.7779C29.9603 25.2622 30.25 24.5627 30.25 23.8334Z" fill="#F54012"/>
</svg>
